<?xml version="1.0" standalone="no"?>
<!DOCTYPE svg PUBLIC "-//W3C//DTD SVG 20010904//EN"
 "http://www.w3.org/TR/2001/REC-SVG-20010904/DTD/svg10.dtd">
<svg version="1.0" xmlns="http://www.w3.org/2000/svg"
 width="350.000000pt" height="350.000000pt" viewBox="0 0 350.000000 350.000000"
 preserveAspectRatio="xMidYMid meet">
<metadata>
Created by potrace 1.16, written by Peter Selinger 2001-2019
</metadata>
<g transform="translate(0.000000,350.000000) scale(0.100000,-0.100000)"
fill="#000000" stroke="none">
<path d="M1519 3390 c-184 -26 -429 -112 -594 -209 -377 -222 -656 -592 -759
-1006 -39 -159 -49 -248 -50 -435 0 -156 3 -188 28 -294 78 -335 220 -600 441
-822 168 -169 319 -272 540 -367 97 -42 263 -88 390 -109 115 -18 378 -15 500
7 460 80 852 337 1101 720 309 477 351 1076 110 1590 -156 332 -423 604 -751
765 -257 125 -402 160 -690 165 -110 2 -230 0 -266 -5z m1056 -305 c89 -24
170 -72 257 -153 63 -60 86 -90 120 -160 40 -79 43 -91 43 -166 0 -60 -5 -90
-19 -116 -46 -88 -115 -131 -221 -138 -152 -10 -284 45 -411 172 -94 94 -138
171 -155 273 -37 216 144 351 386 288z m-1059 -805 c77 -38 145 -110 175 -188
27 -69 30 -185 6 -250 -54 -145 -186 -236 -342 -235 -138 0 -255 74 -317 201
-30 60 -33 75 -33 152 0 70 5 95 27 141 88 191 301 269 484 179z m646 -565
c274 -29 470 -68 723 -145 218 -67 415 -135 415 -145 0 -28 -75 -239 -116
-325 -83 -174 -170 -296 -314 -441 -232 -233 -480 -367 -815 -441 -85 -19
-131 -22 -305 -22 -175 0 -220 3 -310 23 -328 70 -572 202 -805 436 -146 145
-248 284 -320 438 -45 95 -99 245 -110 308 l-7 37 79 29 c223 86 607 194 622
176 4 -4 24 -30 45 -56 21 -26 70 -70 109 -98 170 -119 397 -133 581 -36 77
40 195 155 230 225 l26 52 68 0 c37 0 129 -7 204 -15z"/>
<path d="M1288 2226 c-85 -23 -156 -88 -189 -171 -17 -44 -14 -153 5 -198 44
-100 145 -167 256 -167 152 0 269 115 270 264 0 83 -17 131 -67 186 -73 82
-176 114 -275 86z m179 -37 c54 -26 116 -96 131 -147 50 -168 -67 -332 -238
-332 -104 0 -211 76 -238 169 -17 54 -15 135 3 179 21 49 80 110 130 133 56
26 156 25 212 -2z"/>
</g>
</svg>
